<svg width="63" height="63" viewBox="0 0 63 63" fill="none" xmlns="http://www.w3.org/2000/svg">
<path fill-rule="evenodd" clip-rule="evenodd" d="M63 31.5C63 48.897 48.897 63 31.5 63C14.103 63 0 48.897 0 31.5C0 14.103 14.103 0 31.5 0C48.897 0 63 14.103 63 31.5ZM49.7647 45C49.7647 48.5086 46.9204 51.3529 43.4118 51.3529C39.9031 51.3529 37.0588 48.5086 37.0588 45C37.0588 41.4914 39.9031 38.6471 43.4118 38.6471C46.9204 38.6471 49.7647 41.4914 49.7647 45ZM19.5882 51.3529C23.0969 51.3529 25.9412 48.5086 25.9412 45C25.9412 41.4914 23.0969 38.6471 19.5882 38.6471C16.0796 38.6471 13.2353 41.4914 13.2353 45C13.2353 48.5086 16.0796 51.3529 19.5882 51.3529Z" fill="white"/>
</svg>
